# xmcd
#
# Track frame offsets: 
#        150
#        23006
#        39520
#        60511
#        77321
#        94773
#        114499
#        126745
#        144461
#        165027
#        186723
#
# Disc length: 2656 seconds
#
# Revision: 1
# Processed by: cddbd v1.5.2PL0 Copyright (c) Steve Scherf et al.
# Submitted via: ExactAudioCopy v0.99pb5
#
DISCID=890a5e0b
DTITLE=Joo Kraus and Tales in Tones Trio - Songs from Neverland
DYEAR=2010
DGENRE=Jazz
TTITLE0=Beat it
TTITLE1=Thriller
TTITLE2=I can't help
TTITLE3=Rock with you
TTITLE4=heal the world
TTITLE5=Blame it on the boogie
TTITLE6=Earth song
TTITLE7=The way you make me feel
TTITLE8=Man in the mirror
TTITLE9=Billie Jean
TTITLE10=Don't stop till you get enough
EXTD=YEAR: 2010
EXTT0=
EXTT1=
EXTT2=
EXTT3=
EXTT4=
EXTT5=
EXTT6=
EXTT7=
EXTT8=
EXTT9=
EXTT10=
PLAYORDER=
